<svg width="147" height="67" viewBox="0 0 147 67" fill="none" xmlns="http://www.w3.org/2000/svg">
<g clip-path="url(#clip0_6_172)">
<path d="M32 10.5C22.48 10.5 13.9467 13.965 8.02667 19.5L32 55.5L55.9733 19.5C50.08 13.9875 41.52 10.5 32 10.5ZM18.6667 21.75C18.6667 19.275 21.0667 17.25 24 17.25C26.9333 17.25 29.3333 19.275 29.3333 21.75C29.3333 24.225 26.9333 26.25 24 26.25C21.0667 26.25 18.6667 24.225 18.6667 21.75ZM32 39.75C29.0667 39.75 26.6667 37.725 26.6667 35.25C26.6667 32.775 29.0667 30.75 32 30.75C34.9333 30.75 37.3333 32.775 37.3333 35.25C37.3333 37.725 34.9333 39.75 32 39.75Z" fill="#E07E31"/>
</g>
<path d="M73.392 12.08V18.08H75.528C76.408 17.36 76.848 16.304 76.848 14.912C76.848 14.32 76.728 13.76 76.488 13.232C76.264 12.704 75.992 12.32 75.672 12.08H73.392ZM70.152 26V9.2H76.656C77.744 9.68 78.6 10.416 79.224 11.408C79.864 12.4 80.184 13.56 80.184 14.888C80.184 16.2 79.856 17.416 79.2 18.536C78.544 19.656 77.576 20.448 76.296 20.912H73.392V26H70.152ZM88.6483 26H83.4163C81.8163 24.512 81.0163 22.48 81.0163 19.904C81.0163 18.608 81.1923 17.48 81.5443 16.52C81.9123 15.56 82.4883 14.632 83.2723 13.736H88.8883C89.7203 14.696 90.2883 15.632 90.5923 16.544C90.8963 17.44 91.0483 18.56 91.0483 19.904C91.0483 22.48 90.2483 24.512 88.6483 26ZM85.1203 23.48H86.9443C87.5203 22.36 87.8083 21.088 87.8083 19.664C87.8083 18.24 87.5123 17.104 86.9203 16.256H85.1203C84.5443 17.072 84.2563 18.232 84.2563 19.736C84.2563 21.224 84.5443 22.472 85.1203 23.48ZM92.7904 26V13.736H95.0704L95.6704 15.032C96.3104 14.168 97.1184 13.736 98.0944 13.736H99.0304V16.952H95.9824V26H92.7904ZM101.127 20.648V16.256H99.471V13.736H101.127V10.4H104.319V13.736H106.287V16.256H104.319V21.416C104.319 22.392 104.487 23.08 104.823 23.48H106.287V26H102.879C102.031 25.216 101.519 24.368 101.343 23.456C101.199 22.688 101.127 21.752 101.127 20.648ZM114.945 26H109.713C108.113 24.512 107.313 22.48 107.313 19.904C107.313 18.608 107.489 17.48 107.841 16.52C108.209 15.56 108.785 14.632 109.569 13.736H115.185C116.017 14.696 116.585 15.632 116.889 16.544C117.193 17.44 117.345 18.56 117.345 19.904C117.345 22.48 116.545 24.512 114.945 26ZM111.417 23.48H113.241C113.817 22.36 114.105 21.088 114.105 19.664C114.105 18.24 113.809 17.104 113.217 16.256H111.417C110.841 17.072 110.553 18.232 110.553 19.736C110.553 21.224 110.841 22.472 111.417 23.48ZM118.15 14.504L117.91 9.2H120.574L120.334 14.504H118.15ZM122.209 13.736H127.513V16.256H123.769L126.049 19.64C127.073 21.096 127.641 22.096 127.753 22.64C127.817 22.896 127.849 23.16 127.849 23.432C127.849 24.568 127.425 25.424 126.577 26H120.457V23.48H124.849L122.281 19.712C122.169 19.536 121.993 19.288 121.753 18.968C121.529 18.648 121.353 18.392 121.225 18.2C121.097 17.992 121.009 17.84 120.961 17.744C120.913 17.648 120.849 17.528 120.769 17.384C120.689 17.224 120.633 17.088 120.601 16.976C120.537 16.672 120.505 16.424 120.505 16.232C120.505 15.064 121.073 14.232 122.209 13.736ZM73.392 46.08V52.08H75.528C76.408 51.36 76.848 50.304 76.848 48.912C76.848 48.32 76.728 47.76 76.488 47.232C76.264 46.704 75.992 46.32 75.672 46.08H73.392ZM70.152 60V43.2H76.656C77.744 43.68 78.6 44.416 79.224 45.408C79.864 46.4 80.184 47.56 80.184 48.888C80.184 50.2 79.856 51.416 79.2 52.536C78.544 53.656 77.576 54.448 76.296 54.912H73.392V60H70.152ZM81.8211 60V47.736H84.9891V60H81.8211ZM81.8211 43.2H84.9891V46.44H81.8211V43.2ZM95.0876 49.584L90.4556 57.48H95.0396V60H86.5916V58.152L91.2956 50.256H86.8796V47.736H95.0876V49.584ZM104.744 49.584L100.112 57.48H104.696V60H96.2479V58.152L100.952 50.256H96.5359V47.736H104.744V49.584ZM111.91 54.456H109.342C109.006 54.872 108.838 55.392 108.838 56.016C108.838 56.64 109.014 57.128 109.366 57.48H111.91V54.456ZM106.75 47.736H112.702C113.662 48.312 114.294 48.976 114.598 49.728C114.902 50.464 115.054 51.472 115.054 52.752V56.352C115.054 57.68 115.086 58.896 115.15 60H112.414L111.982 59.136C111.358 59.712 110.478 60 109.342 60H107.83C106.47 59.104 105.79 57.816 105.79 56.136C105.79 54.44 106.486 53.104 107.878 52.128H110.134C110.758 52.128 111.342 52.32 111.886 52.704V51.504C111.886 50.88 111.614 50.464 111.07 50.256H106.75V47.736ZM117.142 60V47.736H119.422L120.022 49.032C120.662 48.168 121.47 47.736 122.446 47.736H123.382V50.952H120.334V60H117.142ZM124.759 60V47.736H127.927V60H124.759ZM124.759 43.2H127.927V46.44H124.759V43.2ZM135.769 54.456H133.201C132.865 54.872 132.697 55.392 132.697 56.016C132.697 56.64 132.873 57.128 133.225 57.48H135.769V54.456ZM130.609 47.736H136.561C137.521 48.312 138.153 48.976 138.457 49.728C138.761 50.464 138.913 51.472 138.913 52.752V56.352C138.913 57.68 138.945 58.896 139.009 60H136.273L135.841 59.136C135.217 59.712 134.337 60 133.201 60H131.689C130.329 59.104 129.649 57.816 129.649 56.136C129.649 54.44 130.345 53.104 131.737 52.128H133.993C134.617 52.128 135.201 52.32 135.745 52.704V51.504C135.745 50.88 135.473 50.464 134.929 50.256H130.609V47.736Z" fill="#E07E31"/>
<defs>
<clipPath id="clip0_6_172">
<rect width="64" height="54" fill="white" transform="translate(0 6)"/>
</clipPath>
</defs>
</svg>
