<svg width="64" height="54" viewBox="0 0 64 54" fill="none" xmlns="http://www.w3.org/2000/svg">
<g clip-path="url(#clip0_1_15)">
<path d="M32 4.5C22.48 4.5 13.9467 7.965 8.02667 13.5L32 49.5L55.9733 13.5C50.08 7.9875 41.52 4.5 32 4.5ZM18.6667 15.75C18.6667 13.275 21.0667 11.25 24 11.25C26.9333 11.25 29.3333 13.275 29.3333 15.75C29.3333 18.225 26.9333 20.25 24 20.25C21.0667 20.25 18.6667 18.225 18.6667 15.75ZM32 33.75C29.0667 33.75 26.6667 31.725 26.6667 29.25C26.6667 26.775 29.0667 24.75 32 24.75C34.9333 24.75 37.3333 26.775 37.3333 29.25C37.3333 31.725 34.9333 33.75 32 33.75Z" fill="#E07E31"/>
</g>
<defs>
<clipPath id="clip0_1_15">
<rect width="64" height="54" fill="white"/>
</clipPath>
</defs>
</svg>
